<?xml version="1.0" encoding="UTF-8"?>
<!DOCTYPE svg PUBLIC "-//W3C//DTD SVG 1.1//EN" "http://www.w3.org/Graphics/SVG/1.1/DTD/svg11.dtd">
<svg xmlns="http://www.w3.org/2000/svg" version="1.1" width="500px" height="500px" style="shape-rendering:geometricPrecision; text-rendering:geometricPrecision; image-rendering:optimizeQuality; fill-rule:evenodd; clip-rule:evenodd" xmlns:xlink="http://www.w3.org/1999/xlink">
<g><path style="opacity:0.004" fill="#000005" d="M 274.5,4.5 C 273.5,4.5 272.5,4.5 271.5,4.5C 272.772,3.56567 274.272,2.89901 276,2.5C 280.795,3.25376 285.628,3.75376 290.5,4C 292.384,4.21631 294.051,4.88298 295.5,6C 288.619,4.8418 281.619,4.3418 274.5,4.5 Z"/></g>
<g><path style="opacity:0.012" fill="#030019" d="M 238.5,3.5 C 235.816,4.73212 232.983,4.73212 230,3.5C 227.97,3.95374 226.137,4.62041 224.5,5.5C 223.833,5.5 223.167,5.5 222.5,5.5C 218.618,4.5352 218.618,3.5352 222.5,2.5C 227.703,2.3068 233.036,2.64013 238.5,3.5 Z"/></g>
<g><path style="opacity:0.047" fill="#0c0970" d="M 255.5,3.5 C 260.927,3.21754 266.26,3.55087 271.5,4.5C 272.5,4.5 273.5,4.5 274.5,4.5C 274.5,4.83333 274.5,5.16667 274.5,5.5C 269.489,5.66593 264.489,5.49926 259.5,5C 257.942,4.78997 256.609,4.28997 255.5,3.5 Z"/></g>
<g><path style="opacity:0.686" fill="#080984" d="M 238.5,3.5 C 240.5,3.5 242.5,3.5 244.5,3.5C 238.091,5.26554 231.424,5.9322 224.5,5.5C 226.137,4.62041 227.97,3.95374 230,3.5C 232.983,4.73212 235.816,4.73212 238.5,3.5 Z"/></g>
<g><path style="opacity:1" fill="#0000dd" d="M 244.5,3.5 C 248.167,3.5 251.833,3.5 255.5,3.5C 256.609,4.28997 257.942,4.78997 259.5,5C 264.489,5.49926 269.489,5.66593 274.5,5.5C 277.167,5.5 279.833,5.5 282.5,5.5C 282.611,6.11742 282.944,6.61742 283.5,7C 286.146,7.49742 288.813,7.66409 291.5,7.5C 292.5,7.5 293.5,7.5 294.5,7.5C 295.79,8.93476 297.456,9.93476 299.5,10.5C 302.768,11.487 306.102,11.8204 309.5,11.5C 312.206,11.5751 314.873,11.9084 317.5,12.5C 317.842,13.3382 318.508,13.6716 319.5,13.5C 320.568,14.4345 321.901,14.7678 323.5,14.5C 325.936,15.871 328.603,16.871 331.5,17.5C 333.777,20.1328 336.777,21.4662 340.5,21.5C 341.167,21.5 341.833,21.5 342.5,21.5C 342.5,22.1667 342.833,22.5 343.5,22.5C 343.833,22.5 344.167,22.5 344.5,22.5C 344.833,22.5 345.167,22.5 345.5,22.5C 345.5,23.1667 345.833,23.5 346.5,23.5C 347.167,23.5 347.5,23.8333 347.5,24.5C 350.586,26.2676 353.919,27.6009 357.5,28.5C 357.833,28.5 358.167,28.5 358.5,28.5C 358.5,29.1667 358.833,29.5 359.5,29.5C 361.292,31.5693 363.626,32.9026 366.5,33.5C 366.833,33.5 367.167,33.5 367.5,33.5C 367.842,34.3382 368.508,34.6716 369.5,34.5C 369.5,35.1667 369.833,35.5 370.5,35.5C 370.833,35.5 371.167,35.5 371.5,35.5C 372.29,36.4013 373.29,37.0679 374.5,37.5C 375.965,38.7368 377.632,39.7368 379.5,40.5C 380.423,39.6971 381.423,39.5304 382.5,40C 381.226,40.9772 381.226,41.8106 382.5,42.5C 384.03,44.3465 386.03,45.3465 388.5,45.5C 391.323,49.6676 394.989,52.6676 399.5,54.5C 399.842,55.3382 400.508,55.6716 401.5,55.5C 402.167,56.8333 403.167,57.8333 404.5,58.5C 405.167,58.8333 405.833,59.1667 406.5,59.5C 406.833,60.5 407.5,61.1667 408.5,61.5C 408.833,61.5 409.167,61.5 409.5,61.5C 411.167,63.8333 413.167,65.8333 415.5,67.5C 415.5,67.8333 415.5,68.1667 415.5,68.5C 419.194,72.5289 423.194,76.1956 427.5,79.5C 429.569,82.5725 432.236,84.9059 435.5,86.5C 435.328,87.4916 435.662,88.1583 436.5,88.5C 436.833,89.1667 437.167,89.8333 437.5,90.5C 438.864,92.1911 440.197,93.8577 441.5,95.5C 441.5,96.8333 442.167,97.5 443.5,97.5C 443.157,99.4832 443.824,100.817 445.5,101.5C 445.5,102.833 446.167,103.5 447.5,103.5C 447.5,104.833 448.167,105.5 449.5,105.5C 449.5,106.167 449.833,106.5 450.5,106.5C 450.5,107.167 450.833,107.5 451.5,107.5C 451.427,109.027 452.094,110.027 453.5,110.5C 453.328,111.492 453.662,112.158 454.5,112.5C 454.402,114.553 455.069,116.22 456.5,117.5C 457.167,117.833 457.833,118.167 458.5,118.5C 458.328,119.492 458.662,120.158 459.5,120.5C 459.5,120.833 459.5,121.167 459.5,121.5C 459.5,122.167 459.833,122.5 460.5,122.5C 462.357,125.414 464.023,128.414 465.5,131.5C 465.527,133.199 466.194,134.533 467.5,135.5C 469.899,138.113 471.565,141.113 472.5,144.5C 473.944,147.963 475.611,150.796 477.5,153C 476.402,153.77 476.402,154.603 477.5,155.5C 477.232,157.099 477.566,158.432 478.5,159.5C 480.585,161.684 481.585,164.351 481.5,167.5C 481.833,168.167 482.167,168.833 482.5,169.5C 482.5,169.833 482.5,170.167 482.5,170.5C 483.656,172.824 484.656,175.157 485.5,177.5C 485.5,178.5 485.5,179.5 485.5,180.5C 486.127,184.366 487.127,188.032 488.5,191.5C 488.5,191.833 488.5,192.167 488.5,192.5C 488.5,193.167 488.833,193.5 489.5,193.5C 489.285,195.179 489.952,196.179 491.5,196.5C 491.5,196.833 491.5,197.167 491.5,197.5C 490.167,197.833 490.167,198.167 491.5,198.5C 491.5,198.833 491.5,199.167 491.5,199.5C 490.662,199.842 490.328,200.508 490.5,201.5C 491.109,205.605 491.775,209.605 492.5,213.5C 492.5,214.167 492.833,214.5 493.5,214.5C 493.5,216.833 493.5,219.167 493.5,221.5C 493.334,225.514 493.501,229.514 494,233.5C 494.383,234.056 494.883,234.389 495.5,234.5C 495.5,245.167 495.5,255.833 495.5,266.5C 494.523,269.287 494.19,272.287 494.5,275.5C 494.5,276.5 494.5,277.5 494.5,278.5C 493.539,280.265 493.205,282.265 493.5,284.5C 493.5,285.167 493.5,285.833 493.5,286.5C 492.566,287.568 492.232,288.901 492.5,290.5C 492.5,291.167 492.5,291.833 492.5,292.5C 491.662,292.842 491.328,293.508 491.5,294.5C 491.5,295.5 491.5,296.5 491.5,297.5C 490.549,298.919 490.216,300.585 490.5,302.5C 489.833,302.5 489.5,302.833 489.5,303.5C 488.165,309.506 486.832,315.506 485.5,321.5C 485.167,321.5 484.833,321.5 484.5,321.5C 483.566,322.568 483.232,323.901 483.5,325.5C 483.5,325.833 483.5,326.167 483.5,326.5C 482.194,327.467 481.527,328.801 481.5,330.5C 480.645,333.711 479.645,336.878 478.5,340C 478.833,340.333 479.167,340.667 479.5,341C 478.584,341.278 477.918,341.778 477.5,342.5C 477.5,343.167 477.5,343.833 477.5,344.5C 476.662,344.842 476.328,345.508 476.5,346.5C 475.662,346.842 475.328,347.508 475.5,348.5C 474.662,348.842 474.328,349.508 474.5,350.5C 473.662,350.842 473.328,351.508 473.5,352.5C 472.833,352.5 472.5,352.833 472.5,353.5C 471.662,353.842 471.328,354.508 471.5,355.5C 471.5,355.833 471.5,356.167 471.5,356.5C 469.895,359.378 468.561,362.378 467.5,365.5C 466.833,365.5 466.5,365.833 466.5,366.5C 465.662,366.842 465.328,367.508 465.5,368.5C 464.662,368.842 464.328,369.508 464.5,370.5C 463.833,370.5 463.5,370.833 463.5,371.5C 462.203,373.371 461.203,375.371 460.5,377.5C 459.833,377.5 459.5,377.833 459.5,378.5C 458.5,378.833 457.833,379.5 457.5,380.5C 457.5,381.167 457.833,381.5 458.5,381.5C 458.5,381.833 458.5,382.167 458.5,382.5C 457.833,382.5 457.5,382.833 457.5,383.5C 457.167,383.5 456.833,383.5 456.5,383.5C 455.122,384.545 454.122,385.878 453.5,387.5C 452.4,388.605 451.733,389.938 451.5,391.5C 450.833,391.5 450.5,391.833 450.5,392.5C 449.17,394.492 447.836,396.492 446.5,398.5C 443.395,401.275 441.062,404.608 439.5,408.5C 438.833,408.5 438.167,408.5 437.5,408.5C 436.5,408.833 435.833,409.5 435.5,410.5C 435.5,411.167 435.5,411.833 435.5,412.5C 434.833,412.5 434.5,412.833 434.5,413.5C 433.833,413.5 433.5,413.833 433.5,414.5C 432.833,414.833 432.167,415.167 431.5,415.5C 430.167,415.5 429.5,416.167 429.5,417.5C 427.833,418.5 426.5,419.833 425.5,421.5C 424.833,421.5 424.5,421.833 424.5,422.5C 423.833,422.5 423.5,422.833 423.5,423.5C 422.833,424.5 422.167,425.5 421.5,426.5C 417.129,430.475 412.796,434.142 408.5,437.5C 407.662,437.842 407.328,438.508 407.5,439.5C 407.167,439.5 406.833,439.5 406.5,439.5C 405.5,439.833 404.833,440.5 404.5,441.5C 403.833,441.5 403.5,441.833 403.5,442.5C 402.508,442.328 401.842,442.662 401.5,443.5C 401.167,444.5 400.5,445.167 399.5,445.5C 398.508,445.328 397.842,445.662 397.5,446.5C 396.833,447.167 396.167,447.833 395.5,448.5C 394.833,448.5 394.5,448.833 394.5,449.5C 393.167,449.5 392.5,450.167 392.5,451.5C 391.209,451.263 390.209,451.596 389.5,452.5C 388.833,452.5 388.5,452.833 388.5,453.5C 388.167,453.5 387.833,453.5 387.5,453.5C 386.833,453.5 386.5,453.833 386.5,454.5C 385.772,456.291 384.772,456.958 383.5,456.5C 382.508,456.328 381.842,456.662 381.5,457.5C 380.833,457.5 380.5,457.833 380.5,458.5C 379.833,458.833 379.167,459.167 378.5,459.5C 377.833,459.5 377.5,459.833 377.5,460.5C 376.833,460.5 376.5,460.833 376.5,461.5C 376.167,461.5 375.833,461.5 375.5,461.5C 374.833,461.833 374.167,462.167 373.5,462.5C 372.833,462.5 372.5,462.833 372.5,463.5C 372.167,463.5 371.833,463.5 371.5,463.5C 369.668,464.248 368.001,465.248 366.5,466.5C 365.833,466.5 365.5,466.833 365.5,467.5C 364.25,467.577 363.417,468.244 363,469.5C 362.617,468.944 362.117,468.611 361.5,468.5C 360.005,468.989 358.671,469.655 357.5,470.5C 356.833,470.5 356.5,470.833 356.5,471.5C 356.167,471.5 355.833,471.5 355.5,471.5C 354.508,471.328 353.842,471.662 353.5,472.5C 352.833,472.5 352.5,472.833 352.5,473.5C 351.508,473.328 350.842,473.662 350.5,474.5C 349.508,474.328 348.842,474.662 348.5,475.5C 347.508,475.328 346.842,475.662 346.5,476.5C 345.508,476.328 344.842,476.662 344.5,477.5C 344.167,477.5 343.833,477.5 343.5,477.5C 342.833,477.5 342.167,477.5 341.5,477.5C 340.508,477.328 339.842,477.662 339.5,478.5C 338.833,478.5 338.5,478.833 338.5,479.5C 337.209,479.263 336.209,479.596 335.5,480.5C 334.508,480.328 333.842,480.662 333.5,481.5C 333.167,481.5 332.833,481.5 332.5,481.5C 331.508,481.328 330.842,481.662 330.5,482.5C 329.508,482.328 328.842,482.662 328.5,483.5C 326.901,483.232 325.568,483.566 324.5,484.5C 323.833,484.5 323.167,484.5 322.5,484.5C 321.833,484.833 321.167,485.167 320.5,485.5C 319.833,485.5 319.167,485.5 318.5,485.5C 317.209,485.263 316.209,485.596 315.5,486.5C 314.833,486.5 314.5,486.833 314.5,487.5C 312.708,487.366 311.042,487.699 309.5,488.5C 308.209,488.263 307.209,488.596 306.5,489.5C 306.167,489.5 305.833,489.5 305.5,489.5C 304.209,489.263 303.209,489.596 302.5,490.5C 299.409,491.637 296.409,491.97 293.5,491.5C 290.447,491.111 287.78,491.777 285.5,493.5C 284.167,493.5 282.833,493.5 281.5,493.5C 278.119,493.46 274.786,493.793 271.5,494.5C 271.167,494.5 270.833,494.5 270.5,494.5C 269.209,494.263 268.209,494.596 267.5,495.5C 267.167,495.5 266.833,495.5 266.5,495.5C 265.833,495.5 265.167,495.5 264.5,495.5C 263.833,495.5 263.167,495.5 262.5,495.5C 261.833,495.5 261.167,495.5 260.5,495.5C 260.167,495.5 259.833,495.5 259.5,495.5C 258.833,495.5 258.167,495.5 257.5,495.5C 257.167,495.5 256.833,495.5 256.5,495.5C 252.833,495.5 249.167,495.5 245.5,495.5C 245.167,495.5 244.833,495.5 244.5,495.5C 243.167,495.5 241.833,495.5 240.5,495.5C 240.167,495.5 239.833,495.5 239.5,495.5C 239.167,495.5 238.833,495.5 238.5,495.5C 238.167,495.5 237.833,495.5 237.5,495.5C 233.069,495.769 228.735,495.436 224.5,494.5C 221.518,494.037 218.518,493.704 215.5,493.5C 213.784,493.371 212.117,493.038 210.5,492.5C 210.167,492.5 209.833,492.5 209.5,492.5C 208.5,492.5 207.5,492.5 206.5,492.5C 203.411,491.215 200.078,490.549 196.5,490.5C 196.167,489.167 195.833,489.167 195.5,490.5C 194.833,490.5 194.167,490.5 193.5,490.5C 193.5,489.833 193.167,489.5 192.5,489.5C 192.5,488.833 192.167,488.5 191.5,488.5C 189.735,487.539 187.735,487.205 185.5,487.5C 185.5,486.167 185.5,484.833 185.5,483.5C 183.446,483.365 181.779,484.032 180.5,485.5C 180.167,485.5 179.833,485.5 179.5,485.5C 177.718,484.28 175.718,483.614 173.5,483.5C 173.167,483.5 172.833,483.5 172.5,483.5C 171.833,483.5 171.167,483.5 170.5,483.5C 170.158,482.662 169.492,482.328 168.5,482.5C 168.5,481.833 168.167,481.5 167.5,481.5C 165.521,479.832 163.188,479.166 160.5,479.5C 160.5,478.833 160.167,478.5 159.5,478.5C 155.781,476.312 151.781,474.645 147.5,473.5C 145.83,473.249 144.33,472.582 143,471.5C 142.667,471.833 142.333,472.167 142,472.5C 140.603,470.93 139.103,469.596 137.5,468.5C 137.5,467.5 137.5,466.5 137.5,465.5C 135.167,465.5 132.833,465.5 130.5,465.5C 129.833,465.167 129.167,464.833 128.5,464.5C 127.205,463.512 125.872,462.512 124.5,461.5C 124.611,460.883 124.944,460.383 125.5,460C 122.19,459.919 119.857,458.419 118.5,455.5C 117.583,456.127 116.583,456.461 115.5,456.5C 114.738,454.738 113.404,453.738 111.5,453.5C 111.167,453.5 110.833,453.5 110.5,453.5C 110.213,450.516 108.546,449.183 105.5,449.5C 105.167,448.167 104.833,448.167 104.5,449.5C 102.448,447.315 99.7812,444.981 96.5,442.5C 95.5,441.833 94.5,441.167 93.5,440.5C 93.5,439.833 93.1667,439.5 92.5,439.5C 89.5,436.833 86.5,434.167 83.5,431.5C 83.5,430.833 83.1667,430.5 82.5,430.5C 82.5,429.833 82.1667,429.5 81.5,429.5C 81.1583,428.662 80.4916,428.328 79.5,428.5C 74.6241,423.046 69.6241,417.713 64.5,412.5C 63.8333,411.167 62.8333,410.167 61.5,409.5C 61.5,409.167 61.5,408.833 61.5,408.5C 60.6935,407.272 59.6935,406.272 58.5,405.5C 58.1667,404.5 57.5,403.833 56.5,403.5C 55.0509,399.796 53.0509,396.462 50.5,393.5C 50.1667,393.5 49.8333,393.5 49.5,393.5C 49.5,392.833 49.1667,392.5 48.5,392.5C 48.0679,391.29 47.4013,390.29 46.5,389.5C 46.1667,388.833 45.8333,388.167 45.5,387.5C 45.1667,386.5 44.5,385.833 43.5,385.5C 43.5,385.167 43.5,384.833 43.5,384.5C 43.5,382.167 43.5,379.833 43.5,377.5C 40.9228,377.545 38.9228,376.545 37.5,374.5C 37.5,374.167 37.5,373.833 37.5,373.5C 36.8776,371.878 35.8776,370.545 34.5,369.5C 34.5,368.833 34.1667,368.5 33.5,368.5C 33.6716,367.508 33.3382,366.842 32.5,366.5C 32.3404,364.847 31.6737,363.514 30.5,362.5C 28.3545,358.65 26.6878,354.984 25.5,351.5C 24.944,348.063 23.6107,345.063 21.5,342.5C 21.5,342.167 21.5,341.833 21.5,341.5C 21.7148,339.821 21.0481,338.821 19.5,338.5C 17.7061,333.513 16.0394,328.513 14.5,323.5C 14.7373,322.209 14.404,321.209 13.5,320.5C 13.4771,317.543 12.4771,315.043 10.5,313C 10.8333,312.667 11.1667,312.333 11.5,312C 10.4604,308.6 9.79375,305.1 9.5,301.5C 9.97461,298.918 9.30794,296.918 7.5,295.5C 7.67474,293.379 7.34141,291.379 6.5,289.5C 6.5,289.167 6.5,288.833 6.5,288.5C 5.90843,285.873 5.5751,283.206 5.5,280.5C 5.8222,274.642 5.48886,268.975 4.5,263.5C 3.56961,256.223 3.23628,248.89 3.5,241.5C 3.19845,238.941 3.53178,236.607 4.5,234.5C 5.48164,231.038 5.81497,227.371 5.5,223.5C 5.22791,221.389 4.89457,219.223 4.5,217C 5.0442,216.283 5.71087,215.783 6.5,215.5C 7.83333,213.5 7.83333,211.5 6.5,209.5C 6.83333,207.5 7.16667,205.5 7.5,203.5C 9.40229,200.663 10.069,197.329 9.5,193.5C 9.83333,193.5 10.1667,193.5 10.5,193.5C 11.4682,191.393 11.8016,189.059 11.5,186.5C 11.6036,184.297 12.2702,182.297 13.5,180.5C 15.2132,179.365 15.8799,177.698 15.5,175.5C 15.5,174.833 15.5,174.167 15.5,173.5C 17.3079,172.082 17.9746,170.082 17.5,167.5C 16.927,165.297 17.5937,163.297 19.5,161.5C 21.0481,161.179 21.7148,160.179 21.5,158.5C 21.0766,157.735 20.7432,156.902 20.5,156C 23.0283,149.805 26.0283,143.972 29.5,138.5C 31.047,137.232 32.047,135.565 32.5,133.5C 32.8333,132.833 33.1667,132.167 33.5,131.5C 33.8333,130.833 34.1667,130.167 34.5,129.5C 35.5,129.167 36.1667,128.5 36.5,127.5C 36.5569,126.391 36.8902,125.391 37.5,124.5C 37.5,124.167 37.5,123.833 37.5,123.5C 38.1667,123.5 38.5,123.167 38.5,122.5C 39.1667,122.5 39.5,122.167 39.5,121.5C 40.1667,121.5 40.5,121.167 40.5,120.5C 40.5,120.167 40.5,119.833 40.5,119.5C 41.1667,119.5 41.5,119.167 41.5,118.5C 42.1667,118.5 42.5,118.167 42.5,117.5C 42.5,117.167 42.5,116.833 42.5,116.5C 43.8333,116.167 43.8333,115.833 42.5,115.5C 42.5,115.167 42.5,114.833 42.5,114.5C 45.912,113.419 47.912,111.085 48.5,107.5C 49.1667,107.5 49.5,107.167 49.5,106.5C 50.4884,105.205 51.4884,103.872 52.5,102.5C 52.5,102.167 52.5,101.833 52.5,101.5C 53.1667,101.5 53.5,101.167 53.5,100.5C 54.1667,100.5 54.5,100.167 54.5,99.5C 54.5,99.1667 54.5,98.8333 54.5,98.5C 55.1667,98.5 55.5,98.1667 55.5,97.5C 56.1667,97.5 56.5,97.1667 56.5,96.5C 57.8776,95.4549 58.8776,94.1216 59.5,92.5C 60.1667,92.5 60.5,92.1667 60.5,91.5C 61.1667,91.5 61.5,91.1667 61.5,90.5C 62.2719,89.3065 63.2719,88.3065 64.5,87.5C 65.5,87.1667 66.1667,86.5 66.5,85.5C 67.5,84.1667 68.5,82.8333 69.5,81.5C 69.5,81.1667 69.5,80.8333 69.5,80.5C 70.391,79.8902 71.391,79.5569 72.5,79.5C 73.5,78.5 74.5,77.5 75.5,76.5C 75.5,76.1667 75.5,75.8333 75.5,75.5C 76.8333,75.5 77.5,74.8333 77.5,73.5C 79.6995,71.6264 81.3662,69.2931 82.5,66.5C 85.0655,66.845 86.8988,65.5117 88,62.5C 88.3333,62.8333 88.6667,63.1667 89,63.5C 91.0494,60.615 93.5494,58.2816 96.5,56.5C 97.4916,56.6716 98.1583,56.3382 98.5,55.5C 99.5,54.5 100.5,53.5 101.5,52.5C 102.492,52.6716 103.158,52.3382 103.5,51.5C 105.027,51.573 106.027,50.9063 106.5,49.5C 108.551,48.5129 110.218,47.1795 111.5,45.5C 112.492,45.6716 113.158,45.3382 113.5,44.5C 114.71,44.0679 115.71,43.4013 116.5,42.5C 117.167,42.5 117.5,42.1667 117.5,41.5C 119.919,40.6359 121.919,39.3026 123.5,37.5C 123.833,37.5 124.167,37.5 124.5,37.5C 125.222,37.0825 125.722,36.4158 126,35.5C 126.414,35.9574 126.914,36.2907 127.5,36.5C 129.651,34.7423 131.817,33.0757 134,31.5C 134.333,31.8333 134.667,32.1667 135,32.5C 136.409,31.2189 137.909,30.2189 139.5,29.5C 140.492,29.6716 141.158,29.3382 141.5,28.5C 142.78,27.0687 144.447,26.4021 146.5,26.5C 147.167,26.1667 147.833,25.8333 148.5,25.5C 149.167,25.5 149.5,25.1667 149.5,24.5C 150.239,24.631 150.906,24.4643 151.5,24C 150.66,22.3335 151.16,22.1669 153,23.5C 154.067,22.8095 155.234,22.3095 156.5,22C 155.5,21.6667 154.5,21.3333 153.5,21C 162.642,19.7816 171.309,17.2816 179.5,13.5C 181.527,13.6621 183.527,13.4955 185.5,13C 186.056,12.6174 186.389,12.1174 186.5,11.5C 188.167,11.5 189.833,11.5 191.5,11.5C 193.483,11.8432 194.817,11.1765 195.5,9.5C 196.167,9.5 196.833,9.5 197.5,9.5C 199.735,9.79472 201.735,9.46138 203.5,8.5C 204.708,7.76589 206.041,7.43255 207.5,7.5C 210.187,7.66409 212.854,7.49742 215.5,7C 216.056,6.61742 216.389,6.11742 216.5,5.5C 218.5,5.5 220.5,5.5 222.5,5.5C 223.167,5.5 223.833,5.5 224.5,5.5C 231.424,5.9322 238.091,5.26554 244.5,3.5 Z"/></g>
<g><path style="opacity:0.8" fill="#100c66" d="M 216.5,5.5 C 216.389,6.11742 216.056,6.61742 215.5,7C 212.854,7.49742 210.187,7.66409 207.5,7.5C 210.345,6.65622 213.345,5.98956 216.5,5.5 Z"/></g>
<g><path style="opacity:0.118" fill="#0c0a75" d="M 282.5,5.5 C 285.689,5.85834 288.689,6.52501 291.5,7.5C 288.813,7.66409 286.146,7.49742 283.5,7C 282.944,6.61742 282.611,6.11742 282.5,5.5 Z"/></g>
<g><path style="opacity:0.004" fill="#000005" d="M 191.5,8.5 C 192.946,7.38705 194.613,7.22039 196.5,8C 194.866,8.49351 193.199,8.66018 191.5,8.5 Z"/></g>
<g><path style="opacity:0.416" fill="#0d0b5b" d="M 203.5,8.5 C 201.735,9.46138 199.735,9.79472 197.5,9.5C 197.783,8.71087 198.283,8.0442 199,7.5C 200.684,8.19293 202.184,8.52626 203.5,8.5 Z"/></g>
<g><path style="opacity:0.588" fill="#0b089a" d="M 294.5,7.5 C 299.825,8.09035 304.825,9.42369 309.5,11.5C 306.102,11.8204 302.768,11.487 299.5,10.5C 297.456,9.93476 295.79,8.93476 294.5,7.5 Z"/></g>
<g><path style="opacity:1" fill="#050973" d="M 195.5,9.5 C 194.817,11.1765 193.483,11.8432 191.5,11.5C 191.082,10.7784 190.416,10.2784 189.5,10C 191.473,9.50454 193.473,9.33788 195.5,9.5 Z"/></g>
<g><path style="opacity:0.004" fill="#000005" d="M 323.5,14.5 C 321.901,14.7678 320.568,14.4345 319.5,13.5C 319.158,12.6618 318.492,12.3284 317.5,12.5C 319.805,10.8283 322.139,10.6617 324.5,12C 323.748,12.6708 323.414,13.5041 323.5,14.5 Z"/></g>
<g><path style="opacity:0.024" fill="#0c053a" d="M 186.5,11.5 C 186.389,12.1174 186.056,12.6174 185.5,13C 183.527,13.4955 181.527,13.6621 179.5,13.5C 178.761,13.631 178.094,13.4643 177.5,13C 179,12.5 180.5,12 182,11.5C 183.455,12.5804 184.955,12.5804 186.5,11.5 Z"/></g>
<g><path style="opacity:1" fill="#0d0a95" d="M 331.5,17.5 C 333.414,18.1847 335.414,18.6847 337.5,19C 338.942,19.3768 339.942,20.2101 340.5,21.5C 336.777,21.4662 333.777,20.1328 331.5,17.5 Z"/></g>
<g><path style="opacity:0.008" fill="#00000c" d="M 349.5,23.5 C 348.833,23.5 348.5,23.8333 348.5,24.5C 348.167,24.5 347.833,24.5 347.5,24.5C 347.5,23.8333 347.167,23.5 346.5,23.5C 345.833,23.5 345.5,23.1667 345.5,22.5C 345.167,22.5 344.833,22.5 344.5,22.5C 344.167,21.1667 343.833,21.1667 343.5,22.5C 342.833,22.5 342.5,22.1667 342.5,21.5C 345.092,20.597 347.426,21.2636 349.5,23.5 Z"/></g>
<g><path style="opacity:0.004" fill="#020015" d="M 149.5,24.5 C 148.833,24.5 148.5,24.8333 148.5,25.5C 147.833,25.8333 147.167,26.1667 146.5,26.5C 146.685,24.8042 147.519,23.4709 149,22.5C 149.464,23.0944 149.631,23.7611 149.5,24.5 Z"/></g>
<g><path style="opacity:0.012" fill="#0d083e" d="M 349.5,23.5 C 351.411,23.5743 352.578,24.5743 353,26.5C 355.443,25.7147 357.943,25.8814 360.5,27C 361.833,28 361.833,29 360.5,30C 363.02,30.4215 365.02,31.5881 366.5,33.5C 363.626,32.9026 361.292,31.5693 359.5,29.5C 358.833,29.5 358.5,29.1667 358.5,28.5C 358.167,27.1667 357.833,27.1667 357.5,28.5C 353.919,27.6009 350.586,26.2676 347.5,24.5C 347.833,24.5 348.167,24.5 348.5,24.5C 349.167,24.5 349.5,24.1667 349.5,23.5 Z"/></g>
<g><path style="opacity:0.024" fill="#010443" d="M 141.5,28.5 C 141.158,29.3382 140.492,29.6716 139.5,29.5C 139.367,26.075 140.033,25.7417 141.5,28.5 Z"/></g>
<g><path style="opacity:0.004" fill="#000006" d="M 124.5,37.5 C 124.167,37.5 123.833,37.5 123.5,37.5C 122.438,36.4246 122.438,35.4246 123.5,34.5C 124.386,35.325 124.719,36.325 124.5,37.5 Z"/></g>
<g><path style="opacity:0.012" fill="#0a0027" d="M 367.5,33.5 C 373.363,32.8781 377.363,35.2115 379.5,40.5C 377.632,39.7368 375.965,38.7368 374.5,37.5C 374.179,35.9519 373.179,35.2852 371.5,35.5C 371.167,35.5 370.833,35.5 370.5,35.5C 369.833,35.5 369.5,35.1667 369.5,34.5C 368.508,34.6716 367.842,34.3382 367.5,33.5 Z"/></g>
<g><path style="opacity:0.008" fill="#01000f" d="M 117.5,41.5 C 117.5,42.1667 117.167,42.5 116.5,42.5C 112.551,42.3068 112.551,41.8068 116.5,41C 115.346,40.0862 115.513,39.2529 117,38.5C 117.483,39.448 117.649,40.448 117.5,41.5 Z"/></g>
<g><path style="opacity:1" fill="#fdfdfe" d="M 177.5,109.5 C 178.612,107.401 179.279,105.067 179.5,102.5C 181.179,87.4438 183.346,72.4438 186,57.5C 189.459,55.34 193.292,54.1734 197.5,54C 205.837,53.0982 214.17,52.2649 222.5,51.5C 225.689,51.1417 228.689,50.475 231.5,49.5C 251.186,47.0734 270.853,44.4067 290.5,41.5C 294.151,41.1618 295.818,42.8285 295.5,46.5C 282.144,89.066 268.311,131.399 254,173.5C 252.819,177.17 253.986,179.503 257.5,180.5C 286.792,174.343 316.125,168.843 345.5,164C 346.804,164.804 347.471,165.971 347.5,167.5C 292.849,263.307 238.015,358.973 183,454.5C 177.695,458.888 175.362,457.555 176,450.5C 191.638,392.491 207.471,334.491 223.5,276.5C 222.872,273.216 220.872,271.883 217.5,272.5C 197.306,275.671 177.139,279.005 157,282.5C 155.289,282.561 153.956,281.894 153,280.5C 160.913,223.537 169.08,166.537 177.5,109.5 Z"/></g>
<g><path style="opacity:0.008" fill="#010014" d="M 113.5,44.5 C 113.158,45.3382 112.492,45.6716 111.5,45.5C 110.287,44.5029 110.454,43.5029 112,42.5C 112.278,43.4158 112.778,44.0825 113.5,44.5 Z"/></g>
<g><path style="opacity:0.012" fill="#060022" d="M 388.5,45.5 C 386.03,45.3465 384.03,44.3465 382.5,42.5C 382.56,41.9569 382.893,41.6236 383.5,41.5C 385.419,42.6125 387.086,43.9458 388.5,45.5 Z"/></g>
<g><path style="opacity:0.004" fill="#0d032b" d="M 388.5,45.5 C 390.017,45.5106 391.184,46.1772 392,47.5C 392.333,47.1667 392.667,46.8333 393,46.5C 395.139,49.0009 397.639,51.1676 400.5,53C 399.944,53.3826 399.611,53.8826 399.5,54.5C 394.989,52.6676 391.323,49.6676 388.5,45.5 Z"/></g>
<g><path style="opacity:0.012" fill="#0d0228" d="M 106.5,49.5 C 106.027,50.9063 105.027,51.573 103.5,51.5C 104.706,50.1196 104.373,48.9529 102.5,48C 104.359,46.4128 105.693,46.9128 106.5,49.5 Z"/></g>
<g><path style="opacity:1" fill="#6059b0" d="M 231.5,49.5 C 228.689,50.475 225.689,51.1417 222.5,51.5C 222.611,50.8826 222.944,50.3826 223.5,50C 226.146,49.5026 228.813,49.3359 231.5,49.5 Z"/></g>
<g><path style="opacity:0.012" fill="#0c0223" d="M 103.5,51.5 C 103.158,52.3382 102.492,52.6716 101.5,52.5C 98.6644,52.7978 98.1644,52.1311 100,50.5C 101.011,51.3366 102.178,51.67 103.5,51.5 Z"/></g>
<g><path style="opacity:0.004" fill="#060014" d="M 98.5,55.5 C 98.1583,56.3382 97.4916,56.6716 96.5,56.5C 93.9991,56.4891 93.8324,55.8224 96,54.5C 96.6708,55.2524 97.5041,55.5858 98.5,55.5 Z"/></g>
<g><path style="opacity:0.008" fill="#040018" d="M 401.5,55.5 C 404.494,55.1457 405.494,56.1457 404.5,58.5C 403.167,57.8333 402.167,56.8333 401.5,55.5 Z"/></g>
<g><path style="opacity:0.008" fill="#010010" d="M 420.5,67.5 C 418.883,68.038 417.216,68.3713 415.5,68.5C 415.5,68.1667 415.5,67.8333 415.5,67.5C 416.525,67.1034 416.692,66.4368 416,65.5C 414.5,64.6667 413.333,63.5 412.5,62C 411.552,61.5172 410.552,61.3505 409.5,61.5C 409.167,60.1667 408.833,60.1667 408.5,61.5C 407.5,61.1667 406.833,60.5 406.5,59.5C 407.279,57.0728 408.446,57.0728 410,59.5C 410.414,59.0426 410.914,58.7093 411.5,58.5C 414.548,61.548 417.548,64.548 420.5,67.5 Z"/></g>
<g><path style="opacity:0.012" fill="#08002e" d="M 82.5,66.5 C 81.4138,66.38 80.7472,65.7133 80.5,64.5C 81.4248,62.1505 82.4248,62.3172 83.5,65C 82.944,65.3826 82.6107,65.8826 82.5,66.5 Z"/></g>
<g><path style="opacity:0.024" fill="#02054a" d="M 420.5,67.5 C 420.833,68.1667 421.167,68.8333 421.5,69.5C 421.421,70.9305 421.754,72.2638 422.5,73.5C 424.567,75.2274 426.233,77.2274 427.5,79.5C 423.194,76.1956 419.194,72.5289 415.5,68.5C 417.216,68.3713 418.883,68.038 420.5,67.5 Z"/></g>
<g><path style="opacity:0.024" fill="#0d0437" d="M 77.5,73.5 C 77.5,74.8333 76.8333,75.5 75.5,75.5C 74.3398,73.7973 75.0065,73.1307 77.5,73.5 Z"/></g>
<g><path style="opacity:0.008" fill="#010014" d="M 421.5,69.5 C 427.105,74.6029 432.605,79.9362 438,85.5C 438.585,86.9976 438.085,87.9976 436.5,88.5C 436.672,87.5084 436.338,86.8417 435.5,86.5C 433.789,82.4118 431.122,80.0784 427.5,79.5C 426.233,77.2274 424.567,75.2274 422.5,73.5C 421.754,72.2638 421.421,70.9305 421.5,69.5 Z"/></g>
<g><path style="opacity:0.024" fill="#0e063a" d="M 75.5,76.5 C 74.5,77.5 73.5,78.5 72.5,79.5C 72.0825,78.7784 71.4158,78.2784 70.5,78C 71.9308,77.5348 73.0975,76.7014 74,75.5C 74.3826,76.056 74.8826,76.3893 75.5,76.5 Z"/></g>
<g><path style="opacity:0.008" fill="#050017" d="M 69.5,80.5 C 69.5,80.8333 69.5,81.1667 69.5,81.5C 68.8333,81.5 68.1667,81.5 67.5,81.5C 67.1667,80.1667 66.8333,80.1667 66.5,81.5C 65.8333,81.5 65.1667,81.5 64.5,81.5C 64.3505,80.448 64.5172,79.448 65,78.5C 65.7412,79.6405 66.5745,79.6405 67.5,78.5C 68.5223,78.8555 69.189,79.5222 69.5,80.5 Z"/></g>
<g><path style="opacity:0.004" fill="#010011" d="M 64.5,81.5 C 64.3605,83.337 63.6939,83.6704 62.5,82.5C 62.9569,81.7025 63.6236,81.3691 64.5,81.5 Z"/></g>
<g><path style="opacity:0.012" fill="#01002c" d="M 66.5,81.5 C 66.8333,81.5 67.1667,81.5 67.5,81.5C 67.3147,82.1701 66.9813,82.1701 66.5,81.5 Z"/></g>
<g><path style="opacity:0.012" fill="#05002b" d="M 66.5,85.5 C 66.1667,86.5 65.5,87.1667 64.5,87.5C 62.8759,84.6416 63.5426,83.9749 66.5,85.5 Z"/></g>
<g><path style="opacity:0.008" fill="#09001a" d="M 61.5,90.5 C 61.5,91.1667 61.1667,91.5 60.5,91.5C 59.8333,91.5 59.5,91.8333 59.5,92.5C 58.596,91.791 58.2627,90.791 58.5,89.5C 59.791,89.2627 60.791,89.596 61.5,90.5 Z"/></g>
<g><path style="opacity:0.012" fill="#09002b" d="M 437.5,90.5 C 440.47,90.7458 441.803,92.4124 441.5,95.5C 440.197,93.8577 438.864,92.1911 437.5,90.5 Z"/></g>
<g><path style="opacity:0.004" fill="#000005" d="M 35.5,94.5 C 36.525,94.8966 36.6917,95.5632 36,96.5C 35.5357,95.9056 35.369,95.2389 35.5,94.5 Z"/></g>
<g><path style="opacity:0.024" fill="#0e063d" d="M 441.5,95.5 C 442.833,95.5 443.5,96.1667 443.5,97.5C 443.5,96.1667 442.833,95.5 441.5,95.5 Z"/></g>
<g><path style="opacity:0.012" fill="#03001a" d="M 36.5,99.5 C 37.5,99.5 38.5,99.5 39.5,99.5C 39.8333,102.5 38.5,103.833 35.5,103.5C 35.4326,102.041 35.7659,100.708 36.5,99.5 Z"/></g>
<g><path style="opacity:0.118" fill="#0e0b67" d="M 443.5,97.5 C 447.099,98.3698 448.433,100.37 447.5,103.5C 446.167,103.5 445.5,102.833 445.5,101.5C 443.824,100.817 443.157,99.4832 443.5,97.5 Z"/></g>
<g><path style="opacity:0.012" fill="#0a022b" d="M 450.5,104.5 C 449.833,104.5 449.5,104.833 449.5,105.5C 448.167,105.5 447.5,104.833 447.5,103.5C 449.196,101.871 450.196,102.204 450.5,104.5 Z"/></g>
<g><path style="opacity:0.008" fill="#010011" d="M 48.5,103.5 C 48.6716,104.492 48.3382,105.158 47.5,105.5C 47.1034,104.475 46.4368,104.308 45.5,105C 43.3333,106.5 41.5,108.333 40,110.5C 38.2041,109.233 36.3707,109.233 34.5,110.5C 33.7132,109.758 33.0465,108.925 32.5,108C 35.4414,107.487 38.4414,106.82 41.5,106C 43.5431,103.883 43.8765,101.55 42.5,99C 43.5384,95.9736 44.8718,95.8069 46.5,98.5C 44.8414,101.201 45.5081,102.868 48.5,103.5 Z"/></g>
<g><path style="opacity:0.024" fill="#0b0539" d="M 56.5,96.5 C 55.8333,96.5 55.5,96.8333 55.5,97.5C 54.8333,97.5 54.5,97.8333 54.5,98.5C 54.5,98.8333 54.5,99.1667 54.5,99.5C 53.8333,99.5 53.5,99.8333 53.5,100.5C 52.8333,100.5 52.5,100.833 52.5,101.5C 51.1667,101.833 51.1667,102.167 52.5,102.5C 51.4884,103.872 50.4884,105.205 49.5,106.5C 48.8333,106.5 48.5,106.833 48.5,107.5C 47.912,111.085 45.912,113.419 42.5,114.5C 43.4221,110.98 45.0887,107.98 47.5,105.5C 48.3382,105.158 48.6716,104.492 48.5,103.5C 49.5114,101.628 50.3448,99.6284 51,97.5C 51.3333,97.8333 51.6667,98.1667 52,98.5C 52.941,96.9386 54.1076,95.6053 55.5,94.5C 56.2975,94.9569 56.6309,95.6236 56.5,96.5 Z"/></g>
<g><path style="opacity:0.004" fill="#00000a" d="M 450.5,104.5 C 451.885,105.574 453.051,106.907 454,108.5C 454.692,109.437 454.525,110.103 453.5,110.5C 452.094,110.027 451.427,109.027 451.5,107.5C 450.833,107.5 450.5,107.167 450.5,106.5C 450.5,105.833 450.5,105.167 450.5,104.5 Z"/></g>
<g><path style="opacity:1" fill="#4239a1" d="M 179.5,102.5 C 179.279,105.067 178.612,107.401 177.5,109.5C 177.338,107.473 177.505,105.473 178,103.5C 178.383,102.944 178.883,102.611 179.5,102.5 Z"/></g>
<g><path style="opacity:0.004" fill="#0d011d" d="M 459.5,120.5 C 458.662,120.158 458.328,119.492 458.5,118.5C 458.289,116.576 457.623,116.243 456.5,117.5C 455.069,116.22 454.402,114.553 454.5,112.5C 454.897,111.475 455.563,111.308 456.5,112C 459.171,114.457 460.171,117.291 459.5,120.5 Z"/></g>
<g><path style="opacity:0.012" fill="#0a012c" d="M 42.5,114.5 C 42.5,114.833 42.5,115.167 42.5,115.5C 42.5,115.833 42.5,116.167 42.5,116.5C 41.1667,116.833 41.1667,117.167 42.5,117.5C 42.5,118.167 42.1667,118.5 41.5,118.5C 40.8333,118.5 40.5,118.833 40.5,119.5C 39.1667,119.833 39.1667,120.167 40.5,120.5C 40.5,121.167 40.1667,121.5 39.5,121.5C 38.8333,121.5 38.5,121.833 38.5,122.5C 38.1667,122.5 37.8333,122.5 37.5,122.5C 38.1695,119.151 39.8361,116.484 42.5,114.5 Z"/></g>
<g><path style="opacity:0.004" fill="#020014" d="M 460.5,122.5 C 459.833,122.5 459.5,122.167 459.5,121.5C 460.79,120.942 461.623,119.942 462,118.5C 465.319,120.825 464.819,122.158 460.5,122.5 Z"/></g>
<g><path style="opacity:0.008" fill="#040017" d="M 37.5,122.5 C 37.5,122.833 37.5,123.167 37.5,123.5C 37.5,123.833 37.5,124.167 37.5,124.5C 35.4482,125.053 35.1148,126.053 36.5,127.5C 36.1667,128.5 35.5,129.167 34.5,129.5C 32.5759,129.711 32.2426,130.377 33.5,131.5C 33.1667,132.167 32.8333,132.833 32.5,133.5C 31.6236,133.631 30.9569,133.298 30.5,132.5C 31.0891,129.724 32.4224,127.39 34.5,125.5C 34.2907,124.914 33.9574,124.414 33.5,124C 34.9007,123.59 36.234,123.09 37.5,122.5 Z"/></g>
<g><path style="opacity:0.686" fill="#110a46" d="M 465.5,131.5 C 468.598,131.413 468.932,131.913 466.5,133C 468.359,133.601 468.692,134.434 467.5,135.5C 466.194,134.533 465.527,133.199 465.5,131.5 Z"/></g>
<g><path style="opacity:0.012" fill="#01002c" d="M 29.5,138.5 C 28.8333,137.167 28.8333,137.167 29.5,138.5 Z"/></g>
<g><path style="opacity:0.004" fill="#000005" d="M 472.5,144.5 C 472.369,143.761 472.536,143.094 473,142.5C 473.692,143.437 473.525,144.103 472.5,144.5 Z"/></g>
<g><path style="opacity:0.318" fill="#140b3f" d="M 477.5,155.5 C 479.109,156.665 479.443,157.999 478.5,159.5C 477.566,158.432 477.232,157.099 477.5,155.5 Z"/></g>
<g><path style="opacity:0.024" fill="#0c084c" d="M 21.5,158.5 C 21.7148,160.179 21.0481,161.179 19.5,161.5C 19.427,159.973 20.0937,158.973 21.5,158.5 Z"/></g>
<g><path style="opacity:0.008" fill="#010010" d="M 483.5,169.5 C 483.167,169.5 482.833,169.5 482.5,169.5C 482.167,168.833 481.833,168.167 481.5,167.5C 482.222,167.082 482.722,166.416 483,165.5C 484.334,166.878 484.501,168.211 483.5,169.5 Z"/></g>
<g><path style="opacity:0.522" fill="#110a6d" d="M 17.5,167.5 C 17.9746,170.082 17.3079,172.082 15.5,173.5C 16.1611,172.36 16.1611,170.86 15.5,169C 16.0442,168.283 16.7109,167.783 17.5,167.5 Z"/></g>
<g><path style="opacity:0.008" fill="#03001b" d="M 483.5,169.5 C 485.645,171.91 486.312,174.577 485.5,177.5C 484.656,175.157 483.656,172.824 482.5,170.5C 483.167,170.5 483.5,170.167 483.5,169.5 Z"/></g>
<g><path style="opacity:0.004" fill="#000009" d="M 499.5,175.5 C 499.5,283.5 499.5,391.5 499.5,499.5C 442.167,499.5 384.833,499.5 327.5,499.5C 326.666,498.252 325.333,497.585 323.5,497.5C 321.667,497.585 320.334,498.252 319.5,499.5C 271.5,499.5 223.5,499.5 175.5,499.5C 174.201,495.63 173.534,491.63 173.5,487.5C 174.873,487.657 176.207,487.49 177.5,487C 176.464,485.383 175.297,485.216 174,486.5C 172.581,485.54 171.081,484.707 169.5,484C 169.728,483.601 170.062,483.435 170.5,483.5C 171.167,483.5 171.833,483.5 172.5,483.5C 172.833,484.833 173.167,484.833 173.5,483.5C 175.718,483.614 177.718,484.28 179.5,485.5C 179.5,486.167 179.833,486.5 180.5,486.5C 183.67,487.672 187.337,488.672 191.5,489.5C 191.833,489.5 192.167,489.5 192.5,489.5C 193.167,489.5 193.5,489.833 193.5,490.5C 194.167,490.5 194.833,490.5 195.5,490.5C 195.833,490.5 196.167,490.5 196.5,490.5C 200.078,490.549 203.411,491.215 206.5,492.5C 207.5,492.5 208.5,492.5 209.5,492.5C 209.833,493.833 210.167,493.833 210.5,492.5C 212.117,493.038 213.784,493.371 215.5,493.5C 218.373,495.482 221.373,495.815 224.5,494.5C 228.735,495.436 233.069,495.769 237.5,495.5C 237.833,496.833 238.167,496.833 238.5,495.5C 238.833,495.5 239.167,495.5 239.5,495.5C 239.833,496.833 240.167,496.833 240.5,495.5C 241.833,495.5 243.167,495.5 244.5,495.5C 244.833,496.833 245.167,496.833 245.5,495.5C 249.167,495.5 252.833,495.5 256.5,495.5C 256.833,496.833 257.167,496.833 257.5,495.5C 258.167,495.5 258.833,495.5 259.5,495.5C 259.833,496.833 260.167,496.833 260.5,495.5C 261.167,495.5 261.833,495.5 262.5,495.5C 263.167,496.833 263.833,496.833 264.5,495.5C 265.167,495.5 265.833,495.5 266.5,495.5C 266.833,496.833 267.167,496.833 267.5,495.5C 268.209,494.596 269.209,494.263 270.5,494.5C 270.833,495.833 271.167,495.833 271.5,494.5C 274.786,493.793 278.119,493.46 281.5,493.5C 280.391,494.29 279.058,494.79 277.5,495C 286.545,496.052 294.878,494.552 302.5,490.5C 303.791,490.737 304.791,490.404 305.5,489.5C 305.833,489.5 306.167,489.5 306.5,489.5C 307.791,489.737 308.791,489.404 309.5,488.5C 311.042,487.699 312.708,487.366 314.5,487.5C 316.224,487.539 316.557,487.206 315.5,486.5C 316.209,485.596 317.209,485.263 318.5,485.5C 319.167,486.833 319.833,486.833 320.5,485.5C 321.167,485.167 321.833,484.833 322.5,484.5C 323.167,485.833 323.833,485.833 324.5,484.5C 325.568,483.566 326.901,483.232 328.5,483.5C 329.492,483.672 330.158,483.338 330.5,482.5C 331.492,482.672 332.158,482.338 332.5,481.5C 332.833,481.5 333.167,481.5 333.5,481.5C 334.492,481.672 335.158,481.338 335.5,480.5C 336.209,479.596 337.209,479.263 338.5,479.5C 339.167,479.5 339.833,479.5 340.5,479.5C 343.452,479.446 346.452,479.612 349.5,480C 350.897,478.69 351.897,477.19 352.5,475.5C 353.779,476.968 355.446,477.635 357.5,477.5C 357.762,476.022 357.429,474.689 356.5,473.5C 355.264,474.246 353.93,474.579 352.5,474.5C 352.5,474.167 352.5,473.833 352.5,473.5C 352.5,472.833 352.833,472.5 353.5,472.5C 353.842,471.662 354.508,471.328 355.5,471.5C 355.5,472.167 355.833,472.5 356.5,472.5C 358.514,472.608 360.18,471.942 361.5,470.5C 363.308,470.509 364.975,470.009 366.5,469C 365.944,468.617 365.611,468.117 365.5,467.5C 366.167,467.5 366.5,467.167 366.5,466.5C 368.001,465.248 369.668,464.248 371.5,463.5C 371.833,464.833 372.167,464.833 372.5,463.5C 373.167,463.5 373.5,463.167 373.5,462.5C 374.167,462.167 374.833,461.833 375.5,461.5C 375.833,462.833 376.167,462.833 376.5,461.5C 377.167,461.5 377.5,461.167 377.5,460.5C 377.5,459.833 377.833,459.5 378.5,459.5C 379.623,460.757 380.289,460.424 380.5,458.5C 381.167,458.5 381.5,458.167 381.5,457.5C 381.842,456.662 382.508,456.328 383.5,456.5C 382.656,458.851 382.989,461.184 384.5,463.5C 385.495,468.792 385.828,474.125 385.5,479.5C 380.798,480.651 375.964,481.318 371,481.5C 365.143,481.158 359.31,480.991 353.5,481C 351.593,485.518 350.926,490.352 351.5,495.5C 399.5,495.5 447.5,495.5 495.5,495.5C 495.5,442.167 495.5,388.833 495.5,335.5C 492.833,335.5 490.167,335.5 487.5,335.5C 487.92,333.326 487.92,331.326 487.5,329.5C 486.65,331.904 485.65,334.237 484.5,336.5C 483.5,336.167 482.833,335.5 482.5,334.5C 483.167,333.167 483.833,331.833 484.5,330.5C 483.767,329.913 482.767,329.913 481.5,330.5C 481.527,328.801 482.194,327.467 483.5,326.5C 484.363,327.463 485.03,327.463 485.5,326.5C 485.043,325.702 484.376,325.369 483.5,325.5C 483.232,323.901 483.566,322.568 484.5,321.5C 484.833,325.5 485.167,325.5 485.5,321.5C 486.268,320.737 486.768,319.737 487,318.5C 487.346,321.576 488.012,324.576 489,327.5C 489.235,320.138 489.735,312.805 490.5,305.5C 490.457,304.584 490.124,303.917 489.5,303.5C 489.5,302.833 489.833,302.5 490.5,302.5C 491.234,301.122 491.901,299.622 492.5,298C 492.272,297.601 491.938,297.435 491.5,297.5C 491.5,296.5 491.5,295.5 491.5,294.5C 492.338,294.158 492.672,293.492 492.5,292.5C 492.5,291.833 492.5,291.167 492.5,290.5C 493.434,289.432 493.768,288.099 493.5,286.5C 493.5,285.833 493.5,285.167 493.5,284.5C 494.461,282.735 494.795,280.735 494.5,278.5C 494.5,277.5 494.5,276.5 494.5,275.5C 495.477,272.713 495.81,269.713 495.5,266.5C 495.5,255.833 495.5,245.167 495.5,234.5C 495.5,233.833 495.5,233.167 495.5,232.5C 495.5,232.167 495.5,231.833 495.5,231.5C 495.326,229.139 494.993,226.806 494.5,224.5C 495.833,223.5 495.833,222.5 494.5,221.5C 494.167,221.5 493.833,221.5 493.5,221.5C 493.5,219.167 493.5,216.833 493.5,214.5C 494.167,214.5 494.5,214.167 494.5,213.5C 495.833,211.833 495.833,210.167 494.5,208.5C 493.833,208.5 493.5,208.167 493.5,207.5C 494.833,206.5 494.833,205.5 493.5,204.5C 492.833,204.5 492.5,204.167 492.5,203.5C 493.833,202.5 493.833,201.5 492.5,200.5C 492.167,200.5 491.833,200.5 491.5,200.5C 491.5,200.167 491.5,199.833 491.5,199.5C 492.833,199.167 492.833,198.833 491.5,198.5C 491.5,198.167 491.5,197.833 491.5,197.5C 492.833,197.167 492.833,196.833 491.5,196.5C 491.068,195.29 490.401,194.29 489.5,193.5C 488.833,193.5 488.5,193.167 488.5,192.5C 489.167,192.5 489.5,192.167 489.5,191.5C 489.198,188.627 488.531,185.961 487.5,183.5C 487.443,182.391 487.11,181.391 486.5,180.5C 486.469,179.37 486.802,178.037 487.5,176.5C 491.445,175.509 495.445,175.176 499.5,175.5 Z M 315.5,488.5 C 318.083,489.092 318.083,489.758 315.5,490.5C 312.215,491.659 308.882,492.159 305.5,492C 308.85,490.514 312.184,489.347 315.5,488.5 Z M 302.5,490.5 C 294.878,494.552 286.545,496.052 277.5,495C 279.058,494.79 280.391,494.29 281.5,493.5C 282.833,493.5 284.167,493.5 285.5,493.5C 287.857,493.663 290.19,493.497 292.5,493C 293.056,492.617 293.389,492.117 293.5,491.5C 296.409,491.97 299.409,491.637 302.5,490.5 Z M 215.5,493.5 C 218.518,493.704 221.518,494.037 224.5,494.5C 221.373,495.815 218.373,495.482 215.5,493.5 Z"/></g>
<g><path style="opacity:0.929" fill="#160c62" d="M 15.5,175.5 C 15.8799,177.698 15.2132,179.365 13.5,180.5C 12.9033,180.265 12.5699,179.765 12.5,179C 13,177.5 13.5,176 14,174.5C 14.3826,175.056 14.8826,175.389 15.5,175.5 Z"/></g>
<g><path style="opacity:0.024" fill="#02075b" d="M 485.5,180.5 C 485.833,180.5 486.167,180.5 486.5,180.5C 487.11,181.391 487.443,182.391 487.5,183.5C 488.531,185.961 489.198,188.627 489.5,191.5C 489.167,191.5 488.833,191.5 488.5,191.5C 487.127,188.032 486.127,184.366 485.5,180.5 Z"/></g>
<g><path style="opacity:0.188" fill="#0f0b4c" d="M 11.5,186.5 C 11.8016,189.059 11.4682,191.393 10.5,193.5C 9.07608,190.875 9.40941,188.542 11.5,186.5 Z"/></g>
<g><path style="opacity:0.8" fill="#150c46" d="M 9.5,193.5 C 10.069,197.329 9.40229,200.663 7.5,203.5C 8.09654,200.059 8.76321,196.725 9.5,193.5 Z"/></g>
<g><path style="opacity:0.024" fill="#000652" d="M 491.5,200.5 C 491.833,200.5 492.167,200.5 492.5,200.5C 492.5,201.5 492.5,202.5 492.5,203.5C 492.5,204.167 492.833,204.5 493.5,204.5C 493.5,205.5 493.5,206.5 493.5,207.5C 493.5,208.167 493.833,208.5 494.5,208.5C 494.5,210.167 494.5,211.833 494.5,213.5C 494.5,214.167 494.167,214.5 493.5,214.5C 492.833,214.5 492.5,214.167 492.5,213.5C 491.775,209.605 491.109,205.605 490.5,201.5C 491.167,201.5 491.5,201.167 491.5,200.5 Z"/></g>
<g><path style="opacity:0.682" fill="#140c69" d="M 6.5,209.5 C 7.83333,211.5 7.83333,213.5 6.5,215.5C 5.16667,213.5 5.16667,211.5 6.5,209.5 Z"/></g>
<g><path style="opacity:0.565" fill="#080884" d="M 493.5,221.5 C 493.833,221.5 494.167,221.5 494.5,221.5C 494.5,222.5 494.5,223.5 494.5,224.5C 494.993,226.806 495.326,229.139 495.5,231.5C 494.167,231.833 494.167,232.167 495.5,232.5C 495.5,233.167 495.5,233.833 495.5,234.5C 494.883,234.389 494.383,234.056 494,233.5C 493.501,229.514 493.334,225.514 493.5,221.5 Z"/></g>
<g><path style="opacity:0.579" fill="#0d0b78" d="M 5.5,223.5 C 5.81497,227.371 5.48164,231.038 4.5,234.5C 4.56341,232.101 4.23008,229.601 3.5,227C 4.0848,225.698 4.75147,224.531 5.5,223.5 Z"/></g>
<g><path style="opacity:0.012" fill="#050025" d="M 3.5,241.5 C 3.23628,248.89 3.56961,256.223 4.5,263.5C 4.5,266.833 4.5,270.167 4.5,273.5C 3.56552,274.568 3.23219,275.901 3.5,277.5C 2.16667,265.5 2.16667,253.5 3.5,241.5 Z"/></g>
<g><path style="opacity:0.383" fill="#110c63" d="M 4.5,263.5 C 5.48886,268.975 5.8222,274.642 5.5,280.5C 3.95186,280.179 3.28519,279.179 3.5,277.5C 4.43448,276.432 4.76781,275.099 4.5,273.5C 4.5,270.167 4.5,266.833 4.5,263.5 Z"/></g>
<g><path style="opacity:0.004" fill="#000005" d="M 6.5,288.5 C 6.5,288.833 6.5,289.167 6.5,289.5C 6.38997,291.354 6.05664,293.354 5.5,295.5C 2.87377,291.159 2.04043,286.492 3,281.5C 3.52184,284.281 4.68851,286.615 6.5,288.5 Z"/></g>
<g><path style="opacity:0.416" fill="#100b62" d="M 7.5,295.5 C 9.30794,296.918 9.97461,298.918 9.5,301.5C 8.73261,300.828 8.06594,299.995 7.5,299C 8.6843,297.855 8.6843,296.688 7.5,295.5 Z"/></g>
<g><path style="opacity:0.008" fill="#08001d" d="M 13.5,320.5 C 14.404,321.209 14.7373,322.209 14.5,323.5C 14.5654,323.938 14.3988,324.272 14,324.5C 13.6905,323.234 13.1905,322.067 12.5,321C 12.7284,320.601 13.0618,320.435 13.5,320.5 Z"/></g>
<g><path style="opacity:0.522" fill="#0d0c4f" d="M 19.5,338.5 C 21.0481,338.821 21.7148,339.821 21.5,341.5C 20.5987,340.71 19.9321,339.71 19.5,338.5 Z"/></g>
<g><path style="opacity:0.012" fill="#090b47" d="M 21.5,342.5 C 23.6107,345.063 24.944,348.063 25.5,351.5C 23.4508,351.294 23.1175,350.461 24.5,349C 22.442,347.51 21.1087,345.51 20.5,343C 20.7284,342.601 21.0618,342.435 21.5,342.5 Z"/></g>
<g><path style="opacity:0.008" fill="#020010" d="M 477.5,342.5 C 478.496,342.414 479.329,342.748 480,343.5C 480.898,348.04 480.065,352.207 477.5,356C 477.818,358.375 479.151,359.542 481.5,359.5C 481.5,367.5 481.5,375.5 481.5,383.5C 475.672,385.209 469.672,385.876 463.5,385.5C 463.5,390.167 463.5,394.833 463.5,399.5C 458.821,399.666 454.155,399.499 449.5,399C 450.386,397.385 451.386,395.885 452.5,394.5C 453.338,394.158 453.672,393.492 453.5,392.5C 456.048,390.704 456.048,389.038 453.5,387.5C 454.122,385.878 455.122,384.545 456.5,383.5C 456.833,384.833 457.167,384.833 457.5,383.5C 458.167,383.5 458.5,383.167 458.5,382.5C 459.833,382.167 459.833,381.833 458.5,381.5C 457.833,381.5 457.5,381.167 457.5,380.5C 457.833,379.5 458.5,378.833 459.5,378.5C 460.167,378.5 460.5,378.167 460.5,377.5C 461.203,375.371 462.203,373.371 463.5,371.5C 464.167,371.5 464.5,371.167 464.5,370.5C 465.338,370.158 465.672,369.492 465.5,368.5C 466.338,368.158 466.672,367.492 466.5,366.5C 467.167,366.5 467.5,366.167 467.5,365.5C 468.561,362.378 469.895,359.378 471.5,356.5C 472.833,356.167 472.833,355.833 471.5,355.5C 471.328,354.508 471.662,353.842 472.5,353.5C 472.5,352.833 472.833,352.5 473.5,352.5C 474.338,352.158 474.672,351.492 474.5,350.5C 475.338,350.158 475.672,349.492 475.5,348.5C 476.338,348.158 476.672,347.492 476.5,346.5C 477.338,346.158 477.672,345.492 477.5,344.5C 477.5,343.833 477.5,343.167 477.5,342.5 Z"/></g>
<g><path style="opacity:0.004" fill="#000005" d="M 30.5,362.5 C 29.8333,363.167 29.8333,363.167 30.5,362.5 Z"/></g>
<g><path style="opacity:0.008" fill="#0d0327" d="M 32.5,366.5 C 33.3382,366.842 33.6716,367.508 33.5,368.5C 34.1667,368.5 34.5,368.833 34.5,369.5C 35.8776,370.545 36.8776,371.878 37.5,373.5C 33.5924,372.327 31.9258,369.993 32.5,366.5 Z"/></g>
<g><path style="opacity:0.993" fill="#110a8b" d="M 37.5,374.5 C 38.9228,376.545 40.9228,377.545 43.5,377.5C 43.5,379.833 43.5,382.167 43.5,384.5C 42.603,383.402 41.7697,383.402 41,384.5C 40.3828,383.551 40.5494,382.718 41.5,382C 39.8371,379.84 38.1704,377.673 36.5,375.5C 36.6236,374.893 36.9569,374.56 37.5,374.5 Z"/></g>
<g><path style="opacity:0.004" fill="#040015" d="M 43.5,385.5 C 44.5,385.833 45.1667,386.5 45.5,387.5C 44.8485,388.091 44.1818,388.757 43.5,389.5C 42.218,388.042 42.218,386.708 43.5,385.5 Z"/></g>
<g><path style="opacity:0.008" fill="#020015" d="M 46.5,389.5 C 47.4013,390.29 48.0679,391.29 48.5,392.5C 45.9486,392.332 45.2819,391.332 46.5,389.5 Z"/></g>
<g><path style="opacity:0.004" fill="#000005" d="M 453.5,392.5 C 452.662,392.842 452.328,393.508 452.5,394.5C 451.167,394.5 450.5,393.833 450.5,392.5C 451.167,392.5 451.5,392.167 451.5,391.5C 452.925,389.969 453.591,390.302 453.5,392.5 Z"/></g>
<g><path style="opacity:0.004" fill="#000007" d="M 446.5,398.5 C 448.54,397.525 448.873,398.192 447.5,400.5C 446.702,400.043 446.369,399.376 446.5,398.5 Z"/></g>
<g><path style="opacity:0.012" fill="#0c032c" d="M 48.5,392.5 C 49.1667,392.5 49.5,392.833 49.5,393.5C 49.8333,394.833 50.1667,394.833 50.5,393.5C 53.0509,396.462 55.0509,399.796 56.5,403.5C 52.2207,401.849 48.8873,399.016 46.5,395C 47.756,394.583 48.4226,393.75 48.5,392.5 Z"/></g>
<g><path style="opacity:0.008" fill="#00000c" d="M 56.5,405.5 C 55.8333,404.167 55.8333,404.167 56.5,405.5 Z"/></g>
<g><path style="opacity:0.004" fill="#08001b" d="M 56.5,405.5 C 57.1667,405.5 57.8333,405.5 58.5,405.5C 59.6935,406.272 60.6935,407.272 61.5,408.5C 60.1667,408.833 60.1667,409.167 61.5,409.5C 61.1034,410.525 60.4368,410.692 59.5,410C 58.1667,409.333 58.1667,408.667 59.5,408C 58.0577,407.623 57.0577,406.79 56.5,405.5 Z"/></g>
<g><path style="opacity:0.004" fill="#020010" d="M 433.5,414.5 C 434.167,414.5 434.5,414.167 434.5,413.5C 435.167,413.5 435.5,413.167 435.5,412.5C 436.833,411.833 436.833,411.167 435.5,410.5C 435.833,409.5 436.5,408.833 437.5,408.5C 438.548,410.933 439.214,410.933 439.5,408.5C 442.054,407.612 444.721,407.279 447.5,407.5C 447.5,410.167 447.5,412.833 447.5,415.5C 444.606,415.042 442.106,415.709 440,417.5C 437.37,417.141 435.203,416.141 433.5,414.5 Z M 437.5,408.5 C 438.167,408.5 438.833,408.5 439.5,408.5C 439.214,410.933 438.548,410.933 437.5,408.5 Z"/></g>
<g><path style="opacity:0.004" fill="#000005" d="M 64.5,412.5 C 63.8333,413.167 63.8333,413.167 64.5,412.5 Z"/></g>
<g><path style="opacity:0.008" fill="#020014" d="M 431.5,415.5 C 433.16,420.777 433.493,426.11 432.5,431.5C 429.725,433.607 426.725,433.941 423.5,432.5C 421.896,430.821 421.229,428.821 421.5,426.5C 422.167,425.5 422.833,424.5 423.5,423.5C 424.167,423.5 424.5,423.167 424.5,422.5C 424.5,421.833 424.833,421.5 425.5,421.5C 425.435,421.938 425.601,422.272 426,422.5C 427.802,421.211 428.969,419.544 429.5,417.5C 429.5,416.167 430.167,415.5 431.5,415.5 Z"/></g>
<g><path style="opacity:0.004" fill="#000005" d="M 72.5,423.5 C 71.8333,422.167 71.8333,422.167 72.5,423.5 Z"/></g>
<g><path style="opacity:0.004" fill="#000005" d="M 72.5,423.5 C 73.1667,423.5 73.5,423.833 73.5,424.5C 73.1667,424.167 72.8333,423.833 72.5,423.5 Z"/></g>
<g><path style="opacity:0.004" fill="#000005" d="M 73.5,424.5 C 74.1667,424.5 74.5,424.833 74.5,425.5C 74.1667,425.167 73.8333,424.833 73.5,424.5 Z"/></g>
<g><path style="opacity:0.004" fill="#000005" d="M 74.5,425.5 C 75.1667,425.5 75.5,425.833 75.5,426.5C 75.1667,426.167 74.8333,425.833 74.5,425.5 Z"/></g>
<g><path style="opacity:0.004" fill="#000005" d="M 75.5,426.5 C 76.1667,426.5 76.5,426.833 76.5,427.5C 76.1667,427.167 75.8333,426.833 75.5,426.5 Z"/></g>
<g><path style="opacity:0.004" fill="#000005" d="M 76.5,427.5 C 77.1667,427.5 77.5,427.833 77.5,428.5C 77.1667,428.167 76.8333,427.833 76.5,427.5 Z"/></g>
<g><path style="opacity:0.004" fill="#000005" d="M 77.5,428.5 C 78.1667,428.5 78.5,428.833 78.5,429.5C 78.1667,429.167 77.8333,428.833 77.5,428.5 Z"/></g>
<g><path style="opacity:0.008" fill="#020014" d="M 79.5,428.5 C 80.4916,428.328 81.1583,428.662 81.5,429.5C 82.1667,429.5 82.5,429.833 82.5,430.5C 83.1667,430.5 83.5,430.833 83.5,431.5C 86.5,434.167 89.5,436.833 92.5,439.5C 93.1667,439.5 93.5,439.833 93.5,440.5C 94.5,441.167 95.5,441.833 96.5,442.5C 96.2172,443.289 95.7172,443.956 95,444.5C 89.3146,439.645 83.8146,434.645 78.5,429.5C 79.1667,429.5 79.5,429.167 79.5,428.5 Z"/></g>
<g><path style="opacity:0.004" fill="#000008" d="M 404.5,442.5 C 404.5,442.167 404.5,441.833 404.5,441.5C 404.833,440.5 405.5,439.833 406.5,439.5C 407.849,440.644 408.183,440.644 407.5,439.5C 407.328,438.508 407.662,437.842 408.5,437.5C 408.735,438.097 409.235,438.43 410,438.5C 412.251,437.13 414.417,435.964 416.5,435C 415.919,438.898 415.586,443.064 415.5,447.5C 412.833,447.5 410.167,447.5 407.5,447.5C 407.66,445.801 407.494,444.134 407,442.5C 406.23,443.598 405.397,443.598 404.5,442.5 Z"/></g>
<g><path style="opacity:0.008" fill="#010012" d="M 401.5,443.5 C 401.842,442.662 402.508,442.328 403.5,442.5C 403.833,442.5 404.167,442.5 404.5,442.5C 403.895,444.481 402.895,444.815 401.5,443.5 Z"/></g>
<g><path style="opacity:0.004" fill="#000006" d="M 96.5,446.5 C 98.337,446.639 98.6704,447.306 97.5,448.5C 96.7025,448.043 96.3691,447.376 96.5,446.5 Z"/></g>
<g><path style="opacity:0.004" fill="#040019" d="M 399.5,445.5 C 399.804,446.15 400.137,446.817 400.5,447.5C 398.253,448.245 396.42,449.578 395,451.5C 394.536,450.906 394.369,450.239 394.5,449.5C 395.167,449.5 395.5,449.167 395.5,448.5C 396.167,447.833 396.833,447.167 397.5,446.5C 397.842,445.662 398.508,445.328 399.5,445.5 Z"/></g>
<g><path style="opacity:0.004" fill="#000006" d="M 104.5,450.5 C 104.5,451.167 104.833,451.5 105.5,451.5C 105.5,451.833 105.5,452.167 105.5,452.5C 102.54,451.968 102.207,451.301 104.5,450.5 Z"/></g>
<g><path style="opacity:0.188" fill="#0a0a53" d="M 104.5,450.5 C 104.5,450.167 104.5,449.833 104.5,449.5C 104.833,449.5 105.167,449.5 105.5,449.5C 108.546,449.183 110.213,450.516 110.5,453.5C 110.167,453.5 109.833,453.5 109.5,453.5C 109.5,452.833 109.167,452.5 108.5,452.5C 107.833,452.5 107.5,452.167 107.5,451.5C 107.167,450.167 106.833,450.167 106.5,451.5C 106.167,451.5 105.833,451.5 105.5,451.5C 104.833,451.5 104.5,451.167 104.5,450.5 Z"/></g>
<g><path style="opacity:0.004" fill="#000005" d="M 106.5,451.5 C 106.833,451.5 107.167,451.5 107.5,451.5C 107.5,452.167 107.833,452.5 108.5,452.5C 109.167,452.5 109.5,452.833 109.5,453.5C 110.303,454.423 110.47,455.423 110,456.5C 108.603,454.93 107.103,453.596 105.5,452.5C 106.167,452.5 106.5,452.167 106.5,451.5 Z"/></g>
<g><path style="opacity:0.004" fill="#030015" d="M 389.5,452.5 C 390.209,451.596 391.209,451.263 392.5,451.5C 393.17,454.59 392.003,456.257 389,456.5C 387.624,456.316 386.791,455.649 386.5,454.5C 387.167,454.5 387.5,454.167 387.5,453.5C 387.833,453.5 388.167,453.5 388.5,453.5C 390.224,453.539 390.557,453.206 389.5,452.5 Z"/></g>
<g><path style="opacity:0.008" fill="#10032b" d="M 111.5,453.5 C 113.404,453.738 114.738,454.738 115.5,456.5C 113.368,456.446 112.035,455.446 111.5,453.5 Z"/></g>
<g><path style="opacity:0.986" fill="#06098a" d="M 124.5,461.5 C 123.5,461.5 122.5,461.5 121.5,461.5C 119.707,459.575 117.707,457.908 115.5,456.5C 116.583,456.461 117.583,456.127 118.5,455.5C 119.857,458.419 122.19,459.919 125.5,460C 124.944,460.383 124.611,460.883 124.5,461.5 Z"/></g>
<g><path style="opacity:0.004" fill="#00000b" d="M 121.5,461.5 C 121.052,463.465 120.052,463.798 118.5,462.5C 119.325,461.614 120.325,461.281 121.5,461.5 Z"/></g>
<g><path style="opacity:0.008" fill="#000009" d="M 128.5,464.5 C 128.103,465.525 127.437,465.692 126.5,465C 127.094,464.536 127.761,464.369 128.5,464.5 Z"/></g>
<g><path style="opacity:0.924" fill="#070890" d="M 130.5,465.5 C 132.833,465.5 135.167,465.5 137.5,465.5C 137.5,466.5 137.5,467.5 137.5,468.5C 134.759,468.293 132.426,467.293 130.5,465.5 Z"/></g>
<g><path style="opacity:0.004" fill="#000005" d="M 137.5,470.5 C 138.833,471.167 138.833,471.167 137.5,470.5 Z"/></g>
<g><path style="opacity:0.047" fill="#010567" d="M 361.5,468.5 C 361.5,469.167 361.5,469.833 361.5,470.5C 360.18,471.942 358.514,472.608 356.5,472.5C 356.5,472.167 356.5,471.833 356.5,471.5C 356.5,470.833 356.833,470.5 357.5,470.5C 358.671,469.655 360.005,468.989 361.5,468.5 Z"/></g>
<g><path style="opacity:0.318" fill="#0d0b4e" d="M 147.5,473.5 C 151.781,474.645 155.781,476.312 159.5,478.5C 159.5,478.833 159.5,479.167 159.5,479.5C 155.507,478.753 152.007,477.086 149,474.5C 146.821,475.84 146.321,475.507 147.5,473.5 Z"/></g>
<g><path style="opacity:0.012" fill="#040336" d="M 350.5,474.5 C 351.167,474.5 351.833,474.5 352.5,474.5C 352.5,474.833 352.5,475.167 352.5,475.5C 351.897,477.19 350.897,478.69 349.5,480C 346.452,479.612 343.452,479.446 340.5,479.5C 340.5,478.833 340.167,478.5 339.5,478.5C 339.842,477.662 340.508,477.328 341.5,477.5C 342.167,478.833 342.833,478.833 343.5,477.5C 343.833,477.5 344.167,477.5 344.5,477.5C 345.492,477.672 346.158,477.338 346.5,476.5C 347.492,476.672 348.158,476.338 348.5,475.5C 349.492,475.672 350.158,475.338 350.5,474.5 Z"/></g>
<g><path style="opacity:0.318" fill="#0e0a42" d="M 159.5,479.5 C 159.833,479.5 160.167,479.5 160.5,479.5C 163.188,479.166 165.521,479.832 167.5,481.5C 168.167,481.5 168.5,481.833 168.5,482.5C 168.631,483.239 168.464,483.906 168,484.5C 165.318,482.415 162.484,480.748 159.5,479.5 Z"/></g>
<g><path style="opacity:1" fill="#030599" d="M 191.5,488.5 C 191.5,488.833 191.5,489.167 191.5,489.5C 187.337,488.672 183.67,487.672 180.5,486.5C 180.5,486.167 180.5,485.833 180.5,485.5C 181.779,484.032 183.446,483.365 185.5,483.5C 185.5,484.833 185.5,486.167 185.5,487.5C 187.735,487.205 189.735,487.539 191.5,488.5 Z"/></g>
<g><path style="opacity:0.704" fill="#120b6b" d="M 293.5,491.5 C 293.389,492.117 293.056,492.617 292.5,493C 290.19,493.497 287.857,493.663 285.5,493.5C 287.78,491.777 290.447,491.111 293.5,491.5 Z"/></g>
</svg>
